<svg width="88" height="81" viewBox="0 0 88 81" fill="none" xmlns="http://www.w3.org/2000/svg">
<path d="M2.2195 3.91089L26.9224 3.91092C44.6733 3.91092 58.4162 11.4525 68.167 19.7425C77.9247 28.0384 83.6424 37.0508 85.3058 39.8792C85.4595 40.1406 85.4595 40.4564 85.3058 40.7178C83.6424 43.5462 77.9247 52.5586 68.167 60.8546C58.4162 69.1446 44.6733 76.6862 26.9224 76.6863L2.2191 76.6862C1.44112 76.6862 0.905982 75.8075 1.30388 75.0883C3.1363 71.7762 6.06626 66.139 8.54057 59.82C11.0069 53.5214 13.059 46.4504 13.059 40.2986C13.059 34.1467 11.0069 27.0757 8.54057 20.7772C6.06627 14.4581 3.1363 8.82093 1.30389 5.50887C0.906141 4.78995 1.4412 3.91089 2.2195 3.91089Z" fill="#64748B" fill-opacity="0.4" stroke="black" stroke-width="2"/>
</svg>
